<svg xmlns:xlink="http://www.w3.org/1999/xlink" height="50" version="1.1" width="50" xmlns="http://www.w3.org/2000/svg" style="overflow: hidden; position: relative;"><g style="-webkit-tap-highlight-color: rgba(0, 0, 0, 0); left: -0.275px; top: -0.0625px;"><desc>Created with Raphaël 2.0.0</desc><defs></defs><path fill="none" stroke="#3B4449" d="M85.9375,25C85.9375,22.4104,83.839583,20.3124,81.25,20.3124C78.660417,20.3124,76.5625,22.4104,76.5625,25C76.5625,27.5896,78.660417,29.6876,81.25,29.6876C83.839583,29.6876,85.9375,27.5896,85.9375,25" stroke-width="2px" stroke-linecap="round" stroke-miterlimit="4" transform="matrix(0.46,0,0,0.46,2,13.5)" style="stroke-linecap: round; stroke-miterlimit: 4;"></path><path fill="none" stroke="#3B4449" d="M23.4375,25C23.4375,22.4104,21.339583,20.3124,18.75,20.3124C16.160417,20.3124,14.0625,22.4104,14.0625,25C14.0625,27.5896,16.160417,29.6876,18.75,29.6876C21.339583,29.6876,23.4375,27.5896,23.4375,25" stroke-width="2px" stroke-linecap="round" stroke-miterlimit="4" transform="matrix(0.46,0,0,0.46,2,13.5)" style="stroke-linecap: round; stroke-miterlimit: 4;"></path><path fill="none" stroke="#3B4449" d="M71.875,25C50,62.5,50,-12.5,28.125,25" stroke-width="1" stroke-linecap="round" stroke-miterlimit="3.79999995" transform="matrix(0.46,0,0,0.46,2,13.5)" style="stroke-linecap: round; stroke-miterlimit: 3.8;"></path><path fill="none" stroke="#3B4449" d="M28.125,25L23.4375,25" stroke-width="1" stroke-linecap="round" stroke-miterlimit="4" transform="matrix(0.46,0,0,0.46,2,13.5)" style="stroke-linecap: round; stroke-miterlimit: 4;"></path><path fill="none" stroke="#3B4449" d="M76.5625,25L71.875,25" stroke-width="1" stroke-linecap="round" stroke-miterlimit="4" transform="matrix(0.46,0,0,0.46,2,13.5)" style="stroke-linecap: round; stroke-miterlimit: 4;"></path><path fill="none" stroke="#3B4449" d="M0,25L14,25" stroke-width="2px" stroke-linecap="round" stroke-miterlimit="4" transform="matrix(0.46,0,0,0.46,2,13.5)" style="stroke-linecap: round; stroke-miterlimit: 4;"></path><path fill="none" stroke="#3B4449" d="M100,25L86,25" stroke-width="2px" stroke-linecap="round" stroke-miterlimit="4" transform="matrix(0.46,0,0,0.46,2,13.5)" style="stroke-linecap: round; stroke-miterlimit: 4;"></path><path fill="#FFFFFF" stroke="#FFFFFF" d="M10.5,10.5L89.5,10.5L89.5,39.5L10.5,39.5Z" opacity="0" stroke-width="0.99999994" transform="matrix(0.46,0,0,0.46,2,13.5)" style="opacity: 0;"></path></g></svg>