<svg xmlns:xlink="http://www.w3.org/1999/xlink" height="50" version="1.1" width="50" xmlns="http://www.w3.org/2000/svg" style="overflow: hidden; position: relative;"><g style="-webkit-tap-highlight-color: rgba(0, 0, 0, 0); left: -0.1375px; top: -0.825px;"><desc>Created with Raphaël 2.0.0</desc><defs></defs><path fill="none" stroke="#3B4449" d="M22.65619,23.43752L81.24996,6.50002" stroke-width="3px" stroke-linecap="round" stroke-miterlimit="6" transform="matrix(0.46,0,0,0.46,2,14.88)" style="stroke-linecap: round; stroke-miterlimit: 6;"></path><path fill="none" stroke="#3B4449" d="M23.43752,25C23.43752,22.41132,21.33869,20.31252,18.75002,20.31252C16.16119,20.31252,14.06251,22.41132,14.06251,25C14.06251,27.58882,16.16119,29.68752,18.75002,29.68752C21.33869,29.68752,23.43752,27.58882,23.43752,25" stroke-width="2px" stroke-linecap="round" stroke-miterlimit="6" transform="matrix(0.46,0,0,0.46,2,14.88)" style="stroke-linecap: round; stroke-miterlimit: 6;"></path><path fill="none" stroke="#3B4449" d="M14.06251,25L6.25,25" stroke-width="2px" stroke-linecap="round" stroke-miterlimit="6" transform="matrix(0.46,0,0,0.46,2,14.88)" style="stroke-linecap: round; stroke-miterlimit: 6;"></path><path fill="none" stroke="#3B4449" d="M76.56256,25C76.56256,22.41132,78.66126,20.31252,81.24996,20.31252C83.83876,20.31252,85.93756,22.41132,85.93756,25C85.93756,27.58882,83.83876,29.68752,81.24996,29.68752C78.66126,29.68752,76.56256,27.58882,76.56256,25" stroke-width="2px" stroke-linecap="round" stroke-miterlimit="6" transform="matrix(0.46,0,0,0.46,2,14.88)" style="stroke-linecap: round; stroke-miterlimit: 6;"></path><path fill="none" stroke="#3B4449" d="M85.93756,25L93.75,25" stroke-width="2px" stroke-linecap="round" stroke-miterlimit="6" transform="matrix(0.46,0,0,0.46,2,14.88)" style="stroke-linecap: round; stroke-miterlimit: 6;"></path><path fill="none" stroke="#3B4449" d="M0,25L6.25,25" stroke-width="2px" stroke-linecap="round" stroke-miterlimit="6" transform="matrix(0.46,0,0,0.46,2,14.88)" style="stroke-linecap: round; stroke-miterlimit: 6;"></path><path fill="none" stroke="#3B4449" d="M100,25L93.75,25" stroke-width="2px" stroke-linecap="round" stroke-miterlimit="6" transform="matrix(0.46,0,0,0.46,2,14.88)" style="stroke-linecap: round; stroke-miterlimit: 6;"></path><path fill="#FFFFFF" stroke="#FFFFFF" d="M12,5L91,5L91,39L12,39Z" opacity="0" stroke-width="1" transform="matrix(0.46,0,0,0.46,2,14.88)" style="opacity: 0;"></path></g></svg>