<svg xmlns:xlink="http://www.w3.org/1999/xlink" height="50" version="1.1" width="50" xmlns="http://www.w3.org/2000/svg" style="overflow: hidden; position: relative;"><g style="-webkit-tap-highlight-color: rgba(0, 0, 0, 0); left: -0.1375px; top: -0.0125px;"><desc>Created with Raphaël 2.0.0</desc><defs></defs><path fill="none" stroke="#3B4449" d="M15.5,25L0,25" stroke-width="2px" stroke-linecap="round" stroke-miterlimit="6" transform="matrix(0.5111,0,0,0.5111,9.6667,-0.5556)" style="stroke-linecap: round; stroke-miterlimit: 6;"></path><path fill="none" stroke="#3B4449" d="M15.5,75L0,75" stroke-width="2px" stroke-linecap="round" stroke-miterlimit="6" transform="matrix(0.5111,0,0,0.5111,9.6667,-0.5556)" style="stroke-linecap: round; stroke-miterlimit: 6;"></path><path fill="#FFFFFF" stroke="#FFFFFF" d="M12,20L38,20L38,80L12,80Z" opacity="0" transform="matrix(0.5111,0,0,0.5111,9.6667,-0.5556)" style="opacity: 0;"></path><path fill="#FFFFFF" stroke="#3B4449" d="M16,21L34,21L34,79L16,79Z" stroke-width="2px" transform="matrix(0.5111,0,0,0.5111,9.6667,-0.5556)" style=""></path><path fill="#FFFFFF" stroke="#3B4449" d="M34,21L60,5L60,95L34,79Z" stroke-width="2px" stroke-linecap="butt" stroke-miterlimit="4" transform="matrix(0.5111,0,0,0.5111,9.6667,-0.5556)" style="stroke-linecap: butt; stroke-miterlimit: 4;"></path></g></svg>