<svg xmlns:xlink="http://www.w3.org/1999/xlink" height="50" version="1.1" width="50" xmlns="http://www.w3.org/2000/svg" style="overflow: hidden; position: relative;"><g style="-webkit-tap-highlight-color: rgba(0, 0, 0, 0); top: -0.5px;"><desc>Created with Raphaël 2.0.0</desc><defs></defs><path fill="#FFFFFF" stroke="#3B4449" d="M50,50C50,36.19374,38.806255,25,25,25C11.193755,25,0,36.19374,0,50C0,63.80632,11.193755,75,25,75C38.806255,75,50,63.80632,50,50" stroke-width="2px" stroke-linecap="round" stroke-miterlimit="6" transform="matrix(0.46,0,0,0.46,13.5,2)" style="stroke-linecap: round; stroke-miterlimit: 6;"></path><path fill="none" stroke="#3B4449" d="M25,0L25,39.361" stroke-width="2px" stroke-linecap="round" stroke-miterlimit="6" transform="matrix(0.46,0,0,0.46,13.5,2)" style="stroke-linecap: round; stroke-miterlimit: 6;"></path><path fill="none" stroke="#3B4449" d="M25,100.00002L25,60.637" stroke-width="2px" stroke-linecap="round" stroke-miterlimit="6" transform="matrix(0.46,0,0,0.46,13.5,2)" style="stroke-linecap: round; stroke-miterlimit: 6;"></path><path fill="none" stroke="#3B4449" d="M25,60.637C13.285898,58.272988,13.285898,65.364317,25,63.000456" stroke-width="2px" stroke-linecap="round" stroke-miterlimit="6" transform="matrix(0.46,0,0,0.46,13.5,2)" style="stroke-linecap: round; stroke-miterlimit: 6;"></path><path fill="none" stroke="#3B4449" d="M25,36.9974C36.714101,39.361312999999996,36.714101,48.81699,25,51.180926" stroke-width="2px" stroke-linecap="round" stroke-miterlimit="6" transform="matrix(0.46,0,0,0.46,13.5,2)" style="stroke-linecap: round; stroke-miterlimit: 6;"></path><path fill="none" stroke="#3B4449" d="M25,48.81699C36.714101,51.180926,36.714101,60.63652,25,63.000456" stroke-width="2px" stroke-linecap="round" stroke-miterlimit="6" transform="matrix(0.46,0,0,0.46,13.5,2)" style="stroke-linecap: round; stroke-miterlimit: 6;"></path><path fill="none" stroke="#3B4449" d="M25,36.9974C13.285898,34.633501,13.285898,41.724906,25,39.361" stroke-width="2px" stroke-linecap="round" stroke-miterlimit="6" transform="matrix(0.46,0,0,0.46,13.5,2)" style="stroke-linecap: round; stroke-miterlimit: 6;"></path><path fill="none" stroke="#3B4449" d="M25,48.81699C13.285898,46.453046,13.285898,53.544787,25,51.180926" stroke-width="2px" stroke-linecap="round" stroke-miterlimit="6" transform="matrix(0.46,0,0,0.46,13.5,2)" style="stroke-linecap: round; stroke-miterlimit: 6;"></path></g></svg>