<svg xmlns:xlink="http://www.w3.org/1999/xlink" height="50" version="1.1" width="50" xmlns="http://www.w3.org/2000/svg" style="overflow: hidden; position: relative;"><g style="-webkit-tap-highlight-color: rgba(0, 0, 0, 0); left: -0.275px; top: -0.0375px;"><desc>Created with Raphaël 2.0.0</desc><defs></defs><path fill="none" stroke="#3B4449" d="M50,35L0,35" stroke-width="2px" stroke-linecap="round" stroke-miterlimit="4" transform="matrix(0.46,0,0,0.46,13.5,2)" style="stroke-linecap: round; stroke-miterlimit: 4;"></path><path fill="none" stroke="#3B4449" d="M25,34.5L25,0" stroke-width="2px" stroke-linecap="round" stroke-miterlimit="4" transform="matrix(0.46,0,0,0.46,13.5,2)" style="stroke-linecap: round; stroke-miterlimit: 4;"></path><path fill="none" stroke="#3B4449" d="M37.5,45L12.5,45" stroke-width="2px" stroke-linecap="round" stroke-miterlimit="4" transform="matrix(0.46,0,0,0.46,13.5,2)" style="stroke-linecap: round; stroke-miterlimit: 4;"></path><path fill="none" stroke="#3B4449" d="M37.5,65L12.5,65" stroke-width="2px" stroke-linecap="round" stroke-miterlimit="4" transform="matrix(0.46,0,0,0.46,13.5,2)" style="stroke-linecap: round; stroke-miterlimit: 4;"></path><path fill="none" stroke="#3B4449" d="M50,55L0,55" stroke-width="2px" stroke-linecap="round" stroke-miterlimit="4" transform="matrix(0.46,0,0,0.46,13.5,2)" style="stroke-linecap: round; stroke-miterlimit: 4;"></path><path fill="none" stroke="#3B4449" d="M25,65.5L25,100" stroke-width="2px" stroke-linecap="round" stroke-miterlimit="4" transform="matrix(0.46,0,0,0.46,13.5,2)" style="stroke-linecap: round; stroke-miterlimit: 4;"></path><path fill="#3B4449" stroke="none" d="M12.239297,19.99626L10.99166,19.99626L10.99166,25.41781L5.6154788,25.41781L5.6154788,26.66545L10.99166,26.66545L10.99166,32.087L12.239297,32.087L12.239297,26.66545L17.615479,26.66545L17.615479,25.41781L12.239297,25.41781L12.239297,19.99626" transform="matrix(0.46,0,0,0.46,13.5,2)" style=""></path><path fill="#FFFFFF" stroke="#FFFFFF" d="M2,20L48,20L48,80L2,80Z" opacity="0" stroke-width="1" transform="matrix(0.46,0,0,0.46,13.5,2)" style="opacity: 0;"></path></g></svg>