<svg xmlns:xlink="http://www.w3.org/1999/xlink" xmlns="http://www.w3.org/2000/svg" height="50" version="1.1" width="50" style="position: relative;"><rect id="backgroundrect" width="100%" height="100%" x="0" y="0" fill="none" stroke="none"/><g class="currentLayer" style=""><title>Layer 1</title><g style="-webkit-tap-highlight-color: rgba(0, 0, 0, 0); left: -0.275px; top: -0.0375px;" id="svg_1" class="selected" stroke="#eb1a1a" stroke-opacity="1"><desc>Created with Raphaël 2.0.0</desc><defs/><path fill="none" stroke="#eb1a1a" d="M36.5,18.1 L13.5,18.1 " stroke-width="2px" stroke-linecap="round" stroke-miterlimit="4" style="stroke-linecap: round; stroke-miterlimit: 4;" id="svg_2" stroke-opacity="1"/><path fill="none" stroke="#eb1a1a" d="M25,17.87 L25,2 " stroke-width="2px" stroke-linecap="round" stroke-miterlimit="4" style="stroke-linecap: round; stroke-miterlimit: 4;" id="svg_3" stroke-opacity="1"/><path fill="none" stroke="#eb1a1a" d="M30.75,22.7 L19.25,22.7 " stroke-width="2px" stroke-linecap="round" stroke-miterlimit="4" style="stroke-linecap: round; stroke-miterlimit: 4;" id="svg_4" stroke-opacity="1"/><path fill="none" stroke="#eb1a1a" d="M30.75,31.900000000000002 L19.25,31.900000000000002 " stroke-width="2px" stroke-linecap="round" stroke-miterlimit="4" style="stroke-linecap: round; stroke-miterlimit: 4;" id="svg_5" stroke-opacity="1"/><path fill="none" stroke="#eb1a1a" d="M36.5,27.3 L13.5,27.3 " stroke-width="2px" stroke-linecap="round" stroke-miterlimit="4" style="stroke-linecap: round; stroke-miterlimit: 4;" id="svg_6" stroke-opacity="1"/><path fill="none" stroke="#eb1a1a" d="M25,32.13 L25,48 " stroke-width="2px" stroke-linecap="round" stroke-miterlimit="4" style="stroke-linecap: round; stroke-miterlimit: 4;" id="svg_7" stroke-opacity="1"/><path fill="#3B4449" stroke="#eb1a1a" d="M19.13007662,11.1982796 L18.556163599999998,11.1982796 L18.556163599999998,13.6921926 L16.083120248,13.6921926 L16.083120248,14.266107 L18.556163599999998,14.266107 L18.556163599999998,16.760020000000004 L19.13007662,16.760020000000004 L19.13007662,14.266107 L21.60312034,14.266107 L21.60312034,13.6921926 L19.13007662,13.6921926 L19.13007662,11.1982796 " style="" id="svg_8" stroke-opacity="1"/><path fill="#FFFFFF" stroke="#eb1a1a" d="M14.42,11.200000000000001 L35.58,11.200000000000001 L35.58,38.800000000000004 L14.42,38.800000000000004 z" opacity="0" stroke-width="1" style="opacity: 0;" id="svg_9" stroke-opacity="1"/></g></g></svg>