<svg xmlns:xlink="http://www.w3.org/1999/xlink" xmlns="http://www.w3.org/2000/svg" height="50" version="1.1" width="50" style="overflow: hidden; position: relative;"><rect id="backgroundrect" width="100%" height="100%" x="0" y="0" fill="none" stroke="none"/><g class="currentLayer" style=""><title>Layer 1</title><g style="-webkit-tap-highlight-color: rgba(0, 0, 0, 0); left: -0.275px; top: -0.0625px;" id="svg_1" class="selected" stroke="#eb1a1a" stroke-opacity="1"><desc>Created with Raphaël 2.0.0</desc><defs/><path fill="none" stroke="#eb1a1a" d="M41.53125,25 C41.53125,23.808784 40.566208180000004,22.843704000000002 39.375,22.843704000000002 C38.183791819999996,22.843704000000002 37.21875,23.808784 37.21875,25 C37.21875,26.191216 38.183791819999996,27.156296 39.375,27.156296 C40.566208180000004,27.156296 41.53125,26.191216 41.53125,25 " stroke-width="2px" stroke-linecap="round" stroke-miterlimit="4" style="stroke-linecap: round; stroke-miterlimit: 4;" id="svg_2" stroke-opacity="1"/><path fill="none" stroke="#eb1a1a" d="M12.78125,25 C12.78125,23.808784 11.81620818,22.843704000000002 10.625,22.843704000000002 C9.43379182,22.843704000000002 8.46875,23.808784 8.46875,25 C8.46875,26.191216 9.43379182,27.156296 10.625,27.156296 C11.81620818,27.156296 12.78125,26.191216 12.78125,25 " stroke-width="2px" stroke-linecap="round" stroke-miterlimit="4" style="stroke-linecap: round; stroke-miterlimit: 4;" id="svg_3" stroke-opacity="1"/><path fill="none" stroke="#eb1a1a" d="M35.0625,25 C25,42.25 25,7.75 14.9375,25 " stroke-width="1" stroke-linecap="round" stroke-miterlimit="3.79999995" style="stroke-linecap: round; stroke-miterlimit: 3.8;" id="svg_4" stroke-opacity="1"/><path fill="none" stroke="#eb1a1a" d="M14.9375,25 L12.78125,25 " stroke-width="1" stroke-linecap="round" stroke-miterlimit="4" style="stroke-linecap: round; stroke-miterlimit: 4;" id="svg_5" stroke-opacity="1"/><path fill="none" stroke="#eb1a1a" d="M37.21875,25 L35.0625,25 " stroke-width="1" stroke-linecap="round" stroke-miterlimit="4" style="stroke-linecap: round; stroke-miterlimit: 4;" id="svg_6" stroke-opacity="1"/><path fill="none" stroke="#eb1a1a" d="M2,25 L8.440000000000001,25 " stroke-width="2px" stroke-linecap="round" stroke-miterlimit="4" style="stroke-linecap: round; stroke-miterlimit: 4;" id="svg_7" stroke-opacity="1"/><path fill="none" stroke="#eb1a1a" d="M48,25 L41.56,25 " stroke-width="2px" stroke-linecap="round" stroke-miterlimit="4" style="stroke-linecap: round; stroke-miterlimit: 4;" id="svg_8" stroke-opacity="1"/><path fill="#FFFFFF" stroke="#eb1a1a" d="M6.83,18.33 L43.17,18.33 L43.17,31.67 L6.83,31.67 z" opacity="0" stroke-width="0.99999994" style="opacity: 0;" id="svg_9" stroke-opacity="1"/></g></g></svg>