<svg xmlns:xlink="http://www.w3.org/1999/xlink" xmlns="http://www.w3.org/2000/svg" height="50" version="1.1" width="50" style="position: relative;"><rect id="backgroundrect" width="100%" height="100%" x="0" y="0" fill="none" stroke="none"/><g class="currentLayer" style=""><title>Layer 1</title><g style="-webkit-tap-highlight-color: rgba(0, 0, 0, 0); top: -0.5px;" id="svg_1" class="" stroke="#eb1a1a" stroke-opacity="1"><desc>Created with Raphaël 2.0.0</desc><defs/><path fill="#FFFFFF" stroke="#eb1a1a" d="M36.5,25 C36.5,18.6491204 31.3508773,13.5 25,13.5 C18.6491273,13.5 13.5,18.6491204 13.5,25 C13.5,31.3509072 18.6491273,36.5 25,36.5 C31.3508773,36.5 36.5,31.3509072 36.5,25 " stroke-width="2px" stroke-linecap="round" stroke-miterlimit="6" style="stroke-linecap: round; stroke-miterlimit: 6;" id="svg_2" stroke-opacity="1"/><path fill="none" stroke="#eb1a1a" d="M25,2 L25,20.10606 " stroke-width="2px" stroke-linecap="round" stroke-miterlimit="6" style="stroke-linecap: round; stroke-miterlimit: 6;" id="svg_3" stroke-opacity="1"/><path fill="none" stroke="#eb1a1a" d="M25,48.00000920000001 L25,29.89302 " stroke-width="2px" stroke-linecap="round" stroke-miterlimit="6" style="stroke-linecap: round; stroke-miterlimit: 6;" id="svg_4" stroke-opacity="1"/><path fill="none" stroke="#eb1a1a" d="M25,29.89302 C19.61151308,28.80557448 19.61151308,32.067585820000005 25,30.98020976 " stroke-width="2px" stroke-linecap="round" stroke-miterlimit="6" style="stroke-linecap: round; stroke-miterlimit: 6;" id="svg_5" stroke-opacity="1"/><path fill="none" stroke="#eb1a1a" d="M25,19.018804 C30.38848646,20.10620398 30.38848646,24.4558154 25,25.54322596 " stroke-width="2px" stroke-linecap="round" stroke-miterlimit="6" style="stroke-linecap: round; stroke-miterlimit: 6;" id="svg_6" stroke-opacity="1"/><path fill="none" stroke="#eb1a1a" d="M25,24.4558154 C30.38848646,25.54322596 30.38848646,29.8927992 25,30.98020976 " stroke-width="2px" stroke-linecap="round" stroke-miterlimit="6" style="stroke-linecap: round; stroke-miterlimit: 6;" id="svg_7" stroke-opacity="1"/><path fill="none" stroke="#eb1a1a" d="M25,19.018804 C19.61151308,17.931410460000002 19.61151308,21.19345676 25,20.10606 " stroke-width="2px" stroke-linecap="round" stroke-miterlimit="6" style="stroke-linecap: round; stroke-miterlimit: 6;" id="svg_8" stroke-opacity="1"/><path fill="none" stroke="#eb1a1a" d="M25,24.4558154 C19.61151308,23.36840116 19.61151308,26.63060202 25,25.54322596 " stroke-width="2px" stroke-linecap="round" stroke-miterlimit="6" style="stroke-linecap: round; stroke-miterlimit: 6;" id="svg_9" stroke-opacity="1"/></g></g></svg>