<svg xmlns:xlink="http://www.w3.org/1999/xlink" xmlns="http://www.w3.org/2000/svg" height="50" version="1.1" width="50" style="overflow: hidden; position: relative;"><rect id="backgroundrect" width="100%" height="100%" x="0" y="0" fill="none" stroke="none"/><g class="currentLayer" style=""><title>Layer 1</title><g style="-webkit-tap-highlight-color: rgba(0, 0, 0, 0); left: -0.1375px; top: -0.825px;" id="svg_1" class="selected" stroke="#eb1a1a" stroke-opacity="1"><desc>Created with Raphaël 2.0.0</desc><defs/><path fill="none" stroke="#eb1a1a" d="M12.421847399999999,25.661259200000003 L39.374981600000005,17.870009200000002 " stroke-width="3px" stroke-linecap="round" stroke-miterlimit="6" style="stroke-linecap: round; stroke-miterlimit: 6;" id="svg_2" stroke-opacity="1"/><path fill="none" stroke="#eb1a1a" d="M12.781259200000001,26.380000000000003 C12.781259200000001,25.189207200000002 11.815797400000001,24.223759200000003 10.6250092,24.223759200000003 C9.4341474,24.223759200000003 8.4687546,25.189207200000002 8.4687546,26.380000000000003 C8.4687546,27.5708572 9.4341474,28.536259200000003 10.6250092,28.536259200000003 C11.815797400000001,28.536259200000003 12.781259200000001,27.5708572 12.781259200000001,26.380000000000003 " stroke-width="2px" stroke-linecap="round" stroke-miterlimit="6" style="stroke-linecap: round; stroke-miterlimit: 6;" id="svg_3" stroke-opacity="1"/><path fill="none" stroke="#eb1a1a" d="M8.4687546,26.380000000000003 L4.875,26.380000000000003 " stroke-width="2px" stroke-linecap="round" stroke-miterlimit="6" style="stroke-linecap: round; stroke-miterlimit: 6;" id="svg_4" stroke-opacity="1"/><path fill="none" stroke="#eb1a1a" d="M37.2187776,26.380000000000003 C37.2187776,25.189207200000002 38.1841796,24.223759200000003 39.374981600000005,24.223759200000003 C40.5658296,24.223759200000003 41.5312776,25.189207200000002 41.5312776,26.380000000000003 C41.5312776,27.5708572 40.5658296,28.536259200000003 39.374981600000005,28.536259200000003 C38.1841796,28.536259200000003 37.2187776,27.5708572 37.2187776,26.380000000000003 " stroke-width="2px" stroke-linecap="round" stroke-miterlimit="6" style="stroke-linecap: round; stroke-miterlimit: 6;" id="svg_5" stroke-opacity="1"/><path fill="none" stroke="#eb1a1a" d="M41.5312776,26.380000000000003 L45.125,26.380000000000003 " stroke-width="2px" stroke-linecap="round" stroke-miterlimit="6" style="stroke-linecap: round; stroke-miterlimit: 6;" id="svg_6" stroke-opacity="1"/><path fill="none" stroke="#eb1a1a" d="M2,26.380000000000003 L4.875,26.380000000000003 " stroke-width="2px" stroke-linecap="round" stroke-miterlimit="6" style="stroke-linecap: round; stroke-miterlimit: 6;" id="svg_7" stroke-opacity="1"/><path fill="none" stroke="#eb1a1a" d="M48,26.380000000000003 L45.125,26.380000000000003 " stroke-width="2px" stroke-linecap="round" stroke-miterlimit="6" style="stroke-linecap: round; stroke-miterlimit: 6;" id="svg_8" stroke-opacity="1"/><path fill="#FFFFFF" stroke="#eb1a1a" d="M7.5200000000000005,17.18 L43.86,17.18 L43.86,32.82 L7.5200000000000005,32.82 z" opacity="0" stroke-width="1" style="opacity: 0;" id="svg_9" stroke-opacity="1"/></g></g></svg>